<svg width="100" height="100" viewBox="0 0 100 100" fill="none" xmlns="http://www.w3.org/2000/svg">
<circle cx="50" cy="50" r="50" fill="#4030E8"/>
<path d="M31.3333 26H36.6667V31.3333H31.3333V44.6667C31.3333 46.0812 30.7714 47.4377 29.7712 48.4379C28.771 49.4381 27.4145 50 26 50C27.4145 50 28.771 50.5619 29.7712 51.5621C30.7714 52.5623 31.3333 53.9188 31.3333 55.3333V68.6667H36.6667V74H31.3333C28.48 73.28 26 71.6 26 68.6667V58C26 56.5855 25.4381 55.229 24.4379 54.2288C23.4377 53.2286 22.0812 52.6667 20.6667 52.6667H18V47.3333H20.6667C22.0812 47.3333 23.4377 46.7714 24.4379 45.7712C25.4381 44.771 26 43.4145 26 42V31.3333C26 29.9188 26.5619 28.5623 27.5621 27.5621C28.5623 26.5619 29.9188 26 31.3333 26ZM68.6667 26C70.0812 26 71.4377 26.5619 72.4379 27.5621C73.4381 28.5623 74 29.9188 74 31.3333V42C74 43.4145 74.5619 44.771 75.5621 45.7712C76.5623 46.7714 77.9188 47.3333 79.3333 47.3333H82V52.6667H79.3333C77.9188 52.6667 76.5623 53.2286 75.5621 54.2288C74.5619 55.229 74 56.5855 74 58V68.6667C74 70.0812 73.4381 71.4377 72.4379 72.4379C71.4377 73.4381 70.0812 74 68.6667 74H63.3333V68.6667H68.6667V55.3333C68.6667 53.9188 69.2286 52.5623 70.2288 51.5621C71.229 50.5619 72.5855 50 74 50C72.5855 50 71.229 49.4381 70.2288 48.4379C69.2286 47.4377 68.6667 46.0812 68.6667 44.6667V31.3333H63.3333V26H68.6667ZM50 58C50.7072 58 51.3855 58.281 51.8856 58.7811C52.3857 59.2811 52.6667 59.9594 52.6667 60.6667C52.6667 61.3739 52.3857 62.0522 51.8856 62.5523C51.3855 63.0524 50.7072 63.3333 50 63.3333C49.2928 63.3333 48.6145 63.0524 48.1144 62.5523C47.6143 62.0522 47.3333 61.3739 47.3333 60.6667C47.3333 59.9594 47.6143 59.2811 48.1144 58.7811C48.6145 58.281 49.2928 58 50 58ZM39.3333 58C40.0406 58 40.7189 58.281 41.219 58.7811C41.719 59.2811 42 59.9594 42 60.6667C42 61.3739 41.719 62.0522 41.219 62.5523C40.7189 63.0524 40.0406 63.3333 39.3333 63.3333C38.6261 63.3333 37.9478 63.0524 37.4477 62.5523C36.9476 62.0522 36.6667 61.3739 36.6667 60.6667C36.6667 59.9594 36.9476 59.2811 37.4477 58.7811C37.9478 58.281 38.6261 58 39.3333 58ZM60.6667 58C61.3739 58 62.0522 58.281 62.5523 58.7811C63.0524 59.2811 63.3333 59.9594 63.3333 60.6667C63.3333 61.3739 63.0524 62.0522 62.5523 62.5523C62.0522 63.0524 61.3739 63.3333 60.6667 63.3333C59.9594 63.3333 59.2811 63.0524 58.7811 62.5523C58.281 62.0522 58 61.3739 58 60.6667C58 59.9594 58.281 59.2811 58.7811 58.7811C59.2811 58.281 59.9594 58 60.6667 58Z" fill="white"/>
</svg>
