<svg width="18" height="18" viewBox="0 0 18 18" fill="none" xmlns="http://www.w3.org/2000/svg">
<path d="M12.5625 10.47C12.75 10.5675 12.87 10.62 12.9075 10.695C12.9525 10.7775 12.9375 11.1525 12.75 11.58C12.6 12 11.82 12.405 11.475 12.42C11.13 12.435 11.1225 12.69 9.255 11.8725C7.3875 11.055 6.2625 9.06 6.1725 8.9325C6.0825 8.805 5.4525 7.8975 5.4825 6.975C5.52 6.06 6 5.625 6.195 5.445C6.375 5.25 6.5775 5.2275 6.705 5.25H7.0575C7.17 5.25 7.3275 5.205 7.47 5.5875L7.9875 6.99C8.0325 7.0875 8.0625 7.2 7.995 7.32L7.7925 7.6275L7.5 7.9425C7.41 8.0325 7.305 8.13 7.41 8.3175C7.5 8.5125 7.875 9.135 8.4 9.6525C9.0825 10.3125 9.6825 10.53 9.8625 10.6275C10.0425 10.7325 10.155 10.7175 10.2675 10.5975L10.875 9.8925C11.0175 9.705 11.1375 9.75 11.31 9.81L12.5625 10.47ZM9 1.5C9.98491 1.5 10.9602 1.69399 11.8701 2.0709C12.7801 2.44781 13.6069 3.00026 14.3033 3.6967C14.9997 4.39314 15.5522 5.21993 15.9291 6.12987C16.306 7.03982 16.5 8.01509 16.5 9C16.5 10.9891 15.7098 12.8968 14.3033 14.3033C12.8968 15.7098 10.9891 16.5 9 16.5C7.5225 16.5 6.15 16.0725 4.9875 15.3375L1.5 16.5L2.6625 13.0125C1.9275 11.85 1.5 10.4775 1.5 9C1.5 7.01088 2.29018 5.10322 3.6967 3.6967C5.10322 2.29018 7.01088 1.5 9 1.5ZM9 3C7.4087 3 5.88258 3.63214 4.75736 4.75736C3.63214 5.88258 3 7.4087 3 9C3 10.29 3.405 11.4825 4.095 12.4575L3.375 14.625L5.5425 13.905C6.5175 14.595 7.71 15 9 15C10.5913 15 12.1174 14.3679 13.2426 13.2426C14.3679 12.1174 15 10.5913 15 9C15 7.4087 14.3679 5.88258 13.2426 4.75736C12.1174 3.63214 10.5913 3 9 3Z" fill="black"/>
</svg>
